<svg aria-hidden="true" style="position:absolute;width:0;height:0;overflow:hidden" xmlns="http://www.w3.org/2000/svg">
<defs>
<symbol id="icon-tag-line" viewBox="0 0 32 32"><path d="M16.128 15.217a.882.882 0 0 1-.182-.602v.003-.871c0-.267.06-.469.182-.608s.329-.208.623-.207c.277 0 .474.059.59.177a.716.716 0 0 1 .174.52v.205h-.495v-.207a.987.987 0 0 0-.015-.203.195.195 0 0 0-.071-.12.28.28 0 0 0-.158-.048l-.022.001h.001l-.021-.001a.303.303 0 0 0-.168.051l.001-.001a.236.236 0 0 0-.082.131v.002a.949.949 0 0 0-.02.198v.018-.001 1.056a.539.539 0 0 0 .063.296.235.235 0 0 0 .097.071l.002.001a.259.259 0 0 0 .129.016h-.001a.267.267 0 0 0 .176-.048l-.001.001a.214.214 0 0 0 .074-.127v-.001c.011-.07.017-.141.015-.212v-.214h.495v.196a.792.792 0 0 1-.172.549l.001-.002c-.114.129-.308.194-.593.194s-.501-.069-.622-.213zm2.063.01c-.125-.136-.188-.333-.188-.594v-.916c0-.259.063-.454.188-.587s.334-.199.628-.198c.291 0 .499.066.625.198s.189.328.189.587v.915c0 .259-.063.457-.191.594s-.334.204-.622.204-.501-.069-.628-.203zm.858-.22a.507.507 0 0 0 .059-.271v-1.121l.001-.03a.503.503 0 0 0-.06-.238l.001.003a.234.234 0 0 0-.1-.072l-.002-.001a.274.274 0 0 0-.132-.016h.001a.29.29 0 0 0-.133.016l.002-.001a.232.232 0 0 0-.101.072.481.481 0 0 0-.059.266v1.126a.507.507 0 0 0 .059.271.332.332 0 0 0 .231.091.35.35 0 0 0 .13-.025l-.002.001a.32.32 0 0 0 .104-.067v-.005zm1.179-2.049h.533l.401 1.689.411-1.689h.519l.053 2.438h-.384l-.041-1.694-.396 1.694h-.308l-.41-1.701-.038 1.701h-.388l.048-2.438zm2.513 0h.831c.479 0 .718.231.718.692 0 .442-.252.663-.756.662h-.283v1.083h-.513l.003-2.438zm.71 1.042a.384.384 0 0 0 .282-.077.393.393 0 0 0 .074-.275v-.027a.778.778 0 0 0-.026-.2l.001.005a.177.177 0 0 0-.038-.067.211.211 0 0 0-.063-.048l-.001-.001a.527.527 0 0 0-.202-.04l-.028.001h.001-.199V14h.199zm1.578-1.042h.551l.565 2.438h-.478l-.112-.562h-.491l-.115.562h-.485l.565-2.438zm.471 1.594-.192-1.023-.192 1.023h.383zm1.101-1.594h.359l.687 1.391v-1.391h.426v2.438h-.341l-.691-1.452v1.452h-.44l.001-2.438zm2.469 1.508-.571-1.505h.481l.349.967.327-.967h.471l-.564 1.505v.93h-.492v-.93zm-12.15 1.996v.127h-.418v.991h-.175v-.991h-.421v-.127h1.014zm1.312 1.119h-.14a.06.06 0 0 1-.035-.011.059.059 0 0 1-.022-.025l-.121-.266h-.581l-.121.266a.067.067 0 0 1-.019.03.06.06 0 0 1-.035.011h-.138l.513-1.118h.178l.519 1.114zm-.849-.415h.484l-.205-.455a.725.725 0 0 1-.036-.1l-.001-.006-.019.059-.019.047-.203.454zm1.733.305a.582.582 0 0 0 .253-.033l.069-.027v-.251h-.207a.04.04 0 0 1-.026-.009.024.024 0 0 1-.008-.009c-.002-.003-.002-.006-.002-.01v-.087h.398v.429a.755.755 0 0 1-.211.09l-.005.001a.928.928 0 0 1-.128.023c-.05.005-.1.007-.15.007h-.007a.779.779 0 0 1-.257-.043l.006.002a.616.616 0 0 1-.206-.118l.001.001a.558.558 0 0 1-.131-.174l-.001-.003a.545.545 0 0 1-.047-.225v-.015c0-.082.017-.16.048-.231l-.001.004c.029-.066.075-.127.132-.177s.128-.09.205-.116a.959.959 0 0 1 .539-.004.626.626 0 0 1 .192.102l-.049.069a.046.046 0 0 1-.039.021.057.057 0 0 1-.032-.009l-.053-.028.003.002a.387.387 0 0 0-.065-.029l-.003-.001a.65.65 0 0 0-.09-.024l-.004-.001a.785.785 0 0 0-.123-.01H19.104a.601.601 0 0 0-.196.032l.004-.001a.445.445 0 0 0-.151.088.378.378 0 0 0-.094.136l-.001.003a.505.505 0 0 0 .002.376l-.001-.004a.43.43 0 0 0 .252.229.577.577 0 0 0 .203.022zm1.634-.018h.56v.127h-.731v-1.118h.175l-.004.991zm1.143.128h-.175v-1.118h.175v1.118zm.652-1.113a.09.09 0 0 1 .027.02l.75.843-.001-.02.001-.021v.001-.833h.153v1.123h-.094a.072.072 0 0 1-.033-.007h.001a.097.097 0 0 1-.027-.021l-.749-.842v.869h-.147v-1.118h.091c.01 0 .02.002.029.005zm2.221-.006v.123h-.621v.369h.504v.119h-.504v.382h.621v.123h-.802v-1.115h.802zM6.389 9.557l7.787 1.909v6.689l-7.787-1.908v-6.69zm-.5-.571v7.586l8.785 2.154v-7.585L5.889 8.986z"/><path d="m10.597 22.247-8.786-2.156v-7.584l8.786 2.155v7.585zM6.035 9.47l7.685 1.885-3.269 2.823-7.686-1.886L6.034 9.47zm-.146-.484-4.078 3.52 8.786 2.155 4.077-3.521-8.785-2.155zm5.203 12.834 3.582-3.094-3.583-.878v3.973z"/></symbol>

<symbol id="icon-tagline-here" viewBox="0 0 32 32"><path d="M15.129 8.735h-.041c-.063-.004-.127-.005-.19-.007h-.137c-.12 0-.242.003-.363.009l-.014-.001-.014.001h.001a8.505 8.505 0 0 0-3.226.832l.051-.022-.13.063v6.684l.306-.104c.268-.092.554-.175.849-.252.73-.195 1.571-.313 2.437-.324h.007v.878a8.532 8.532 0 0 0-.322.009h-.025a9.848 9.848 0 0 0-1.948.304l.068-.015a9.488 9.488 0 0 0-2.289.898l.049-.025V9.09a8.778 8.778 0 0 1 2.288-.942l.062-.014a8.838 8.838 0 0 1 2.213-.286h.131c.154.004.305.011.446.021.372.026.741.085 1.103.176v.864a6.512 6.512 0 0 0-1.047-.16l-.022-.001-.022-.002c-.075-.006-.149-.013-.219-.013zm1.521.883c.192.015.39.022.591.022a9.49 9.49 0 0 0 2.395-.314l-.066.015a9.563 9.563 0 0 0 2.288-.898l-.049.025v8.42a8.778 8.778 0 0 1-2.288.942l-.062.014a8.8 8.8 0 0 1-2.213.285h-.056a6.772 6.772 0 0 1-1.672-.208l.047.01V9.456a7.036 7.036 0 0 0 1.086.163zm4.285.066-.305.103c-.281.095-.565.179-.849.254-.761.204-1.635.322-2.536.325h-.002c-.199 0-.383-.005-.56-.017l-.244-.016v6.876l.209.018c.194.017.394.026.596.026a8.08 8.08 0 0 0 2.055-.272l-.057.013a8.325 8.325 0 0 0 1.612-.583l-.05.022.13-.063V9.684zM10.789 20.592a.45.45 0 0 0-.324-.138h-.017.001-.007a.519.519 0 0 0-.193.038l.003-.001a.444.444 0 0 0-.25.251l-.001.003a.493.493 0 0 0-.035.19v1.145a.541.541 0 0 0 .045.235.406.406 0 0 0 .272.235.666.666 0 0 0 .171.024.484.484 0 0 0 .475-.482v-.128h-.3v.109a.261.261 0 0 1-.018.097l.001-.002a.194.194 0 0 1-.043.065.208.208 0 0 1-.125.044l-.018.001a.152.152 0 0 1-.123-.062.268.268 0 0 1-.04-.142v-.012.001-1.068a.362.362 0 0 1 .037-.171.155.155 0 0 1 .147-.069h-.001.006a.16.16 0 0 1 .128.064c.031.04.05.092.05.147V21.072h.296V20.95a.53.53 0 0 0-.038-.199l.001.004a.457.457 0 0 0-.1-.161zm1.778-.012a.52.52 0 0 0-.519-.094.47.47 0 0 0-.273.251l-.001.003a.543.543 0 0 0-.044.222v1.098a.529.529 0 0 0 .044.225.496.496 0 0 0 .453.283c.131 0 .25-.049.341-.129h-.001a.466.466 0 0 0 .113-.154.529.529 0 0 0 .044-.225v-1.109a.527.527 0 0 0-.045-.215l.001.003a.488.488 0 0 0-.113-.16zm-.14 1.48.001.017a.197.197 0 0 1-.06.142.217.217 0 0 1-.282-.001.197.197 0 0 1-.059-.16v.001-1.099l-.001-.017c0-.056.023-.106.06-.142a.217.217 0 0 1 .282.001c.037.036.06.086.06.142l-.001.018v-.001 1.099zm2.476.491v-2.08h-.288l-.378 1.101h-.005l-.381-1.101h-.285v2.079h.297v-1.265h.005l.291.894h.148l.293-.894h.005v1.265h.297zm1.688-1.934a.42.42 0 0 0-.168-.114.632.632 0 0 0-.204-.032h-.453v2.08h.296v-.812h.152a.537.537 0 0 0 .267-.057.436.436 0 0 0 .162-.157l.001-.002a.51.51 0 0 0 .068-.181c.01-.065.016-.141.016-.218v-.02.001c.003-.1-.007-.2-.029-.297a.447.447 0 0 0-.109-.191zm-.153.634a.252.252 0 0 1-.028.11l.001-.002a.163.163 0 0 1-.075.072h-.001a.296.296 0 0 1-.124.027h-.016.001-.135v-.707h.167a.29.29 0 0 1 .121.027l-.002-.001a.164.164 0 0 1 .069.076v.001a.31.31 0 0 1 .026.116v.138c0 .048.003.098 0 .143h-.003zm1.557-.78h-.243l-.458 2.08h.296l.087-.447h.404l.087.447h.296l-.469-2.08zm-.274 1.35.146-.754h.005l.145.754h-.296zm2.188-.097h-.005l-.447-1.253h-.285v2.08h.296V21.3h.006l.453 1.25h.279v-2.079h-.296v1.253zm1.811-1.253-.238.827h-.006l-.238-.827h-.313l.407 1.201v.879h.296v-.879l.407-1.201h-.314zM9.962 23.138h.143v.401h.097v-.401h.142v-.082h-.382v.082zm1.201-.082-.187.483h.103l.04-.11h.193l.041.11h.106l-.192-.483h-.103zm-.015.292.066-.179.066.179h-.131zm1.202.013h.112v.062a.19.19 0 0 1-.115.041h-.007a.123.123 0 0 1-.096-.046.204.204 0 0 1-.036-.115v-.011.001c0-.107.046-.161.139-.161l.01-.001c.048 0 .088.033.099.077v.001l.095-.019c-.021-.094-.088-.142-.205-.142h-.006a.246.246 0 0 0-.163.062.236.236 0 0 0-.069.187v-.001.011c0 .065.024.124.062.17a.233.233 0 0 0 .168.071h.016-.001.008a.289.289 0 0 0 .197-.077v-.19h-.209v.081zm1.212-.305h-.098v.483h.338v-.082h-.24v-.401zm1.025 0h-.098v.483h.098v-.483zm1.001.322-.198-.322h-.095v.483h.091v-.315l.194.315h.097v-.483h-.09v.323zm.906-.052h.241v-.082h-.241v-.106h.259v-.082h-.357v.483h.366v-.082h-.269v-.131zm2.196-.08h-.19v-.19h-.097v.483h.097v-.211h.19v.211h.097v-.483h-.097v.191zm.912.08h.241v-.082h-.241v-.106h.26v-.082h-.356v.483h.366v-.082h-.269v-.131zm1.235 0c.084-.013.127-.058.127-.134l.001-.014a.116.116 0 0 0-.048-.094.274.274 0 0 0-.122-.029l-.02.001h.001-.205v.483h.097v-.202h.027c.019 0 .037.004.053.011h-.001a.103.103 0 0 1 .034.035l.105.153h.116l-.059-.094a.345.345 0 0 0-.106-.115l-.001-.001zm-.098-.067h-.072v-.121h.076l.02-.001c.028 0 .055.005.08.013h-.002a.064.064 0 0 1 .021.047c0 .021-.01.039-.025.051a.26.26 0 0 1-.081.012l-.019-.001h.001zm1.03.067h.24v-.082h-.24v-.106h.26v-.082h-.357v.483h.366v-.082h-.269v-.131z"/></symbol>

<symbol id="icon-brand" viewBox="0 0 32 32"><path d="M2.416 23.738c.124.14.189.316.186.496l.001.038a.73.73 0 0 1-.069.31l.002-.004a.792.792 0 0 1-.221.282l-.002.001a1.322 1.322 0 0 1-.843.228h.004-1.475v-3.144h1.445a1.313 1.313 0 0 1 .805.211l-.005-.003a.739.739 0 0 1 .216.264.656.656 0 0 1 .064.325.686.686 0 0 1-.168.48.802.802 0 0 1-.44.246.85.85 0 0 1 .498.269zm-1.73-.474h.618a.631.631 0 0 0 .393-.105.368.368 0 0 0 .104-.137l.001-.002a.344.344 0 0 0 .029-.138l-.001-.031v.001a.359.359 0 0 0-.029-.169l.001.002a.381.381 0 0 0-.103-.14.63.63 0 0 0-.406-.106h.002-.608v.825zm1.071 1.206a.4.4 0 0 0 .113-.142l.001-.002a.351.351 0 0 0 .033-.15l-.001-.026v.001l.001-.023a.376.376 0 0 0-.035-.157l.001.002a.408.408 0 0 0-.115-.144l-.001-.001a.673.673 0 0 0-.378-.115l-.043.001h.002-.648v.865h.656a.688.688 0 0 0 .414-.109zm3.612.621-.803-1.229h-.302v1.229h-.691v-3.145h1.309a1.368 1.368 0 0 1 .914.27l-.004-.003a.964.964 0 0 1 .313.7.946.946 0 0 1-.217.603l.001-.002a1.09 1.09 0 0 1-.618.319l-.006.001.856 1.257h-.752zm-1.105-1.658h.565c.393 0 .589-.158.589-.476l.001-.025a.427.427 0 0 0-.034-.168l.001.003a.484.484 0 0 0-.112-.163.646.646 0 0 0-.39-.13l-.057.002h.002-.572l.007.957zm4.884 1.024H7.77l-.243.633h-.725l1.265-3.11h.784l1.26 3.11h-.724l-.238-.633zm-.184-.476-.503-1.327-.503 1.327h1.007zm4.914 1.11h-.686l-1.539-2.138v2.138h-.685v-3.145h.685l1.539 2.151v-2.151h.686v3.145zm3.917-.753a1.433 1.433 0 0 1-.621.555 2.138 2.138 0 0 1-.909.199l-.059-.001h.003-1.221v-3.145h1.222l.057-.001c.329 0 .641.071.922.199l-.014-.006c.263.122.479.313.621.549.141.256.215.538.215.825s-.074.569-.215.825zm-.786-.075c.186-.195.301-.459.303-.75a1.1 1.1 0 0 0-.303-.75 1.259 1.259 0 0 0-.863-.267h.004-.476v2.036h.476c.024.002.051.002.079.002.296 0 .568-.102.783-.272l-.003.002zM9.578 4.453s8.857 3.062 8.67 7.493v7.494s-8.851-3.063-8.667-7.494l-.003-7.493zm16.56 13.232a12.85 12.85 0 0 1 5.628-1.899v-2.347c-2.327.822-4.302 2.311-5.628 4.245z"/><path d="M25.134 18.392c1.369-2.524 3.742-4.472 6.633-5.444v-6.76S19.152 10.55 19.419 16.859v10.67s.562-.195 1.447-.561c0-.341 0-.685.041-1.031.261-2.929 1.781-5.643 4.228-7.546z"/><path fill="#afb1b8" style="fill:var(--color1, #afb1b8)" d="M23.934 22.356c.066-.74.214-1.472.441-2.185-1.524 1.643-2.446 3.683-2.638 5.831a8.806 8.806 0 0 0-.034.615 35.154 35.154 0 0 0 2.629-1.27l-.203.1a10.095 10.095 0 0 1-.196-3.09zm.502.038a9.713 9.713 0 0 0 .167 2.861l-.011-.063c3.446-1.889 7.319-4.806 7.17-8.332v-.307c-2.462.252-4.766 1.238-6.557 2.805a9.547 9.547 0 0 0-.765 2.998l-.003.038z"/></symbol>

<symbol id="icon-foster-peters" viewBox="0 0 32 32"><path d="M4.949 13.027h-.001c-.903 0-1.635.65-1.635 1.453v.001c0 .802.732 1.453 1.635 1.453h.001c.903 0 1.635-.651 1.635-1.453v-.001c0-.803-.732-1.453-1.635-1.453zm12.066-.464c-.003-1.114-.502-2.183-1.388-2.971s-2.088-1.232-3.342-1.234c-1.254.002-2.457.446-3.344 1.234s-1.387 1.856-1.389 2.971v6.145s9.462-.937 9.463-6.144v-.001zM0 20.725c.002.776.35 1.518.967 2.067s1.453.857 2.325.859c.872-.002 1.708-.311 2.325-.859s.965-1.291.967-2.066V16.45S0 17.102 0 20.725zm3.292.765a.942.942 0 0 1-.479-.129.792.792 0 0 1-.315-.339l-.002-.005a.681.681 0 0 1-.048-.447l-.001.005a.737.737 0 0 1 .236-.392.89.89 0 0 1 .436-.209l.005-.001a.98.98 0 0 1 .504.045l-.007-.002c.158.058.293.156.387.282s.145.274.145.425a.685.685 0 0 1-.065.294.775.775 0 0 1-.186.249l-.001.001a.869.869 0 0 1-.28.167.945.945 0 0 1-.33.059H3.29v-.003zm6.654-.421h-.635v.656H8.98v-1.606h1.046v.268h-.715v.415h.635v.267zm1.59-.11c0 .158-.028.297-.084.416a.631.631 0 0 1-.586.373h-.012.001a.641.641 0 0 1-.598-.366l-.002-.004a.932.932 0 0 1-.087-.397v-.014.001-.079c0-.158.029-.297.085-.417a.631.631 0 0 1 .599-.374.632.632 0 0 1 .598.374.96.96 0 0 1 .086.416v.072zm-.335-.074c0-.168-.03-.296-.09-.384a.294.294 0 0 0-.245-.131h-.014.001-.013a.293.293 0 0 0-.244.13l-.001.001c-.06.086-.091.212-.091.379v.078c0 .164.03.291.09.381s.147.136.261.136h.013a.29.29 0 0 0 .242-.129l.001-.001c.059-.087.09-.215.09-.382v-.078zm1.408.418v-.009a.167.167 0 0 0-.066-.133.84.84 0 0 0-.238-.106 1.658 1.658 0 0 1-.282-.115l.01.005c-.183-.099-.274-.232-.274-.398 0-.087.024-.164.073-.232.049-.069.12-.122.211-.16s.195-.057.309-.057c.115 0 .217.021.307.063s.159.099.208.175c.05.075.075.162.075.258h-.331a.216.216 0 0 0-.069-.171.283.283 0 0 0-.195-.062.301.301 0 0 0-.189.052.16.16 0 0 0-.067.131v.004c0 .052.026.096.078.131s.131.068.233.099c.188.056.325.127.411.211s.129.188.129.313c0 .139-.053.248-.158.328s-.246.118-.424.118a.83.83 0 0 1-.338-.068.548.548 0 0 1-.232-.184l-.001-.002a.47.47 0 0 1-.079-.264v-.011.001h.332c0 .177.106.266.318.266.079 0 .14-.016.184-.047a.159.159 0 0 0 .066-.128v-.007zm1.766-.916h-.492v1.338h-.331v-1.338h-.485v-.268h1.308v.268zm1.156.642h-.635v.43h.745v.266h-1.076v-1.606h1.074v.268h-.744v.383h.635v.259zm.899.108h-.264v.588h-.331v-1.606h.597c.19 0 .336.043.439.127s.154.204.154.358c0 .11-.024.201-.072.275a.484.484 0 0 1-.212.173l-.003.001.347.656v.015h-.355l-.301-.587zm-.264-.268h.267a.275.275 0 0 0 .193-.063.227.227 0 0 0 .068-.163v-.013.001c0-.076-.021-.136-.065-.179s-.108-.065-.198-.065h-.266v.482zm2.005.29v.566h-.331v-1.606h.626c.12 0 .227.022.318.066s.163.107.212.189a.524.524 0 0 1 .074.277c0 .157-.054.282-.162.373s-.256.136-.447.136h-.29zm0-.268h.296c.088 0 .154-.021.2-.062.047-.041.07-.1.07-.177v-.012a.26.26 0 0 0-.07-.179.263.263 0 0 0-.192-.075h-.303v.504zm2.093.138h-.635v.43h.745v.266h-1.076v-1.606h1.074v.268h-.744v.383h.635v.259zm1.536-.642h-.492v1.338h-.331v-1.338h-.485v-.268H21.8v.268zm1.156.642h-.635v.43h.745v.266h-1.077v-1.606h1.074v.268h-.743v.383h.635v.259zm.899.108h-.264v.588h-.331v-1.606h.597c.19 0 .336.043.439.127s.154.204.154.358c0 .11-.024.201-.072.275a.484.484 0 0 1-.212.173l-.003.001.347.656v.015h-.355l-.301-.587zm-.264-.268h.267a.275.275 0 0 0 .193-.063.226.226 0 0 0 .069-.163v-.013.001a.239.239 0 0 0-.065-.179c-.043-.043-.108-.065-.197-.065h-.266v.482zm1.945.435v-.009a.169.169 0 0 0-.066-.134.84.84 0 0 0-.238-.106 1.658 1.658 0 0 1-.282-.115l.01.005c-.183-.099-.274-.232-.274-.398 0-.087.024-.164.073-.232.049-.069.12-.122.211-.16s.195-.057.309-.057c.115 0 .217.021.307.063s.159.099.208.175c.05.075.075.162.075.258h-.331a.216.216 0 0 0-.069-.171.283.283 0 0 0-.195-.062.301.301 0 0 0-.189.052.16.16 0 0 0-.068.131v.004c0 .052.026.096.079.131s.131.068.233.099c.188.056.325.127.411.211s.129.188.129.313c0 .139-.053.248-.158.328s-.247.118-.424.118a.83.83 0 0 1-.338-.068.548.548 0 0 1-.232-.184l-.001-.002a.47.47 0 0 1-.079-.264v-.011.001h.332c0 .177.106.266.318.266.079 0 .14-.016.184-.047a.159.159 0 0 0 .066-.128v-.006z"/></symbol>

<symbol id="icon-company" viewBox="0 0 32 32"><path d="M5.266 30.294a.1.1 0 0 1 .061.024l.155.148c-.121.12-.269.216-.437.282a1.673 1.673 0 0 1-.578.101l-.042-.001h.002a1.607 1.607 0 0 1-.581-.095 1.275 1.275 0 0 1-.439-.267l.001.001a1.196 1.196 0 0 1-.281-.403l-.003-.008a1.337 1.337 0 0 1-.099-.511v-.017.001-.027c0-.362.157-.688.407-.912l.001-.001c.132-.116.291-.207.465-.268.191-.064.395-.096.599-.094h.037c.186 0 .364.031.53.089l-.011-.003c.154.058.295.139.417.238l-.13.158a.112.112 0 0 1-.033.028h-.001a.087.087 0 0 1-.045.012h-.007a.127.127 0 0 1-.058-.017h.001l-.069-.043-.097-.054a1.074 1.074 0 0 0-.3-.093l-.006-.001a1.298 1.298 0 0 0-.214-.017h-.018.001-.014c-.149 0-.292.026-.425.074l.009-.003a.998.998 0 0 0-.339.2l.001-.001a.905.905 0 0 0-.219.316c-.05.119-.079.258-.079.403v.015-.001.017c0 .147.029.287.082.414l-.003-.007a.894.894 0 0 0 .537.511c.127.046.262.068.399.068.079.001.159-.004.237-.014a.928.928 0 0 0 .513-.219l-.001.001a.123.123 0 0 1 .073-.027zm4.479-.745v.016c0 .184-.039.358-.108.517l.003-.008a1.154 1.154 0 0 1-.29.406l-.001.001a1.342 1.342 0 0 1-.449.264l-.009.003a1.91 1.91 0 0 1-1.192-.004l.013.004a1.373 1.373 0 0 1-.456-.269l.001.001a1.193 1.193 0 0 1-.292-.403l-.003-.008a1.354 1.354 0 0 1 .003-1.057l-.003.009a1.2 1.2 0 0 1 .295-.412c.129-.113.284-.201.455-.258a1.851 1.851 0 0 1 1.193.004l-.013-.004c.172.06.328.151.457.267a1.2 1.2 0 0 1 .293.406c.072.169.107.348.105.528zm-.407 0v-.022a1.1 1.1 0 0 0-.077-.407l.003.008a.87.87 0 0 0-.529-.512l-.006-.002a1.35 1.35 0 0 0-.866.003l.01-.003a.911.911 0 0 0-.328.2.848.848 0 0 0-.208.309l-.002.006a1.228 1.228 0 0 0 .003.851l-.003-.009a.864.864 0 0 0 .532.51l.006.002c.276.09.58.09.857 0a.912.912 0 0 0 .327-.197.888.888 0 0 0 .208-.315c.052-.135.077-.278.074-.421zm3.463.442.041.094c.016-.033.029-.064.045-.094a.713.713 0 0 1 .053-.096l-.002.004.991-1.565c.02-.027.037-.044.057-.049s.044-.009.068-.009h.014-.001.293v2.546h-.347v-1.951l-.001-.044.002-.046v.002l-.998 1.587a.144.144 0 0 1-.058.057h-.001a.177.177 0 0 1-.084.021H12.813a.17.17 0 0 1-.084-.022h.001a.136.136 0 0 1-.057-.057v-.001l-1.026-1.597v2.043h-.335v-2.54h.306c.024 0 .048.003.07.009h-.002a.113.113 0 0 1 .054.049l1.012 1.567a.528.528 0 0 1 .049.088l.001.003zm3.728-.126v.953h-.387v-2.541h.865a1.86 1.86 0 0 1 .483.055.954.954 0 0 1 .341.159.666.666 0 0 1 .192.245l.002.004a.77.77 0 0 1 .066.326v.016c0 .23-.11.434-.279.563l-.002.001a.998.998 0 0 1-.343.168 1.585 1.585 0 0 1-.436.059h-.032l-.468-.007zm0-.274h.469a1.13 1.13 0 0 0 .301-.038.642.642 0 0 0 .218-.111l-.002.001a.487.487 0 0 0 .178-.377v-.006l.001-.027a.425.425 0 0 0-.04-.182l.001.003a.5.5 0 0 0-.134-.173l-.001-.001a.827.827 0 0 0-.461-.139l-.064.002h.003-.469v1.047zm5.212 1.23h-.312a.145.145 0 0 1-.08-.024h.001a.158.158 0 0 1-.051-.058v-.001l-.263-.614h-1.325l-.273.614a.147.147 0 0 1-.131.083h-.311l1.163-2.546h.403l1.179 2.546zm-1.92-.945h1.094l-.461-1.036a1.63 1.63 0 0 1-.087-.239l-.045.133a.899.899 0 0 1-.043.108l-.457 1.034zm3.595-1.588a.162.162 0 0 1 .058.045l1.697 1.919v-1.976h.347v2.546h-.197a.191.191 0 0 1-.076-.016h.001a.208.208 0 0 1-.062-.047l-1.695-1.917.001.044c0 .016 0 .031-.002.046v-.002 1.892h-.347v-2.546h.206a.21.21 0 0 1 .07.012zm4.959 1.521v1.011h-.388v-1.01l-1.072-1.533h.355c.028 0 .054.008.075.022h-.001a.243.243 0 0 1 .053.058l.671.989c.027.043.05.081.07.118s.036.073.049.107l.05-.11a.958.958 0 0 1 .066-.116l.661-.996a.281.281 0 0 1 .049-.054.127.127 0 0 1 .077-.025h.359l-1.074 1.54zm-15.766-5.805c.169.018.339.033.512.047 2.616-1.017 4.829-2.681 6.363-4.784s2.319-4.553 2.259-7.043l-2.884-2.505c.587 2.65.313 5.39-.791 7.913s-2.994 4.729-5.459 6.372z"/><path d="m11.58 23.888.078.014c2.634-1.638 4.641-3.923 5.764-6.562s1.308-5.51.533-8.242L13.848 5.53c1.66 2.933 2.33 6.215 1.927 9.465-.401 3.25-1.856 6.333-4.196 8.892zm13.926-8.723c-.698 2.736-2.392 5.202-4.832 7.035-.666.507-1.418.982-2.209 1.391l-.086.04c1.987-.507 3.812-1.404 5.337-2.621s2.707-2.723 3.456-4.4l-1.665-1.446z"/><path d="m24.853 14.763-2.371-2.06c-.046 2.349-.814 4.644-2.226 6.647s-3.416 3.642-5.803 4.745h.011c.532 0 1.063-.028 1.591-.082 2.231-.791 4.202-2.05 5.737-3.664s2.586-3.533 3.06-5.586zM11.922 4.025l-2.829-2.46c-2.529.849-4.703 2.342-6.24 4.282s-2.362 4.24-2.37 6.595c.009 2.603 1.018 5.129 2.866 7.177 1.847 2.048 4.428 3.504 7.334 4.134 2.594-2.746 4.113-6.14 4.336-9.687s-.863-7.065-3.098-10.041zm19.466 10.359c-.01-3.088-1.427-6.047-3.94-8.23s-5.919-3.414-9.473-3.423h-.026c-1.709 0-3.351.285-4.882.809l.106-.032 17.319 15.047c.564-1.226.894-2.659.896-4.17v-.001z"/></symbol>

<symbol id="icon-ya-and-go" viewBox="0 0 32 32"><path d="m11.472 9.057 2.116 2.003-3.927-.002v9.717h10.264V17.06l2.113 2.001V9.058H11.472zm8.36 7.767-5.998-5.678h5.998v5.678zm-1.863 2.528h-6.685v-6.535h.472v6.092h6.212v.442zm-5.106 2.716-.247.509-.247-.509h-.207l.36.678v.395h.187v-.395l.36-.678h-.206zm.311 1.073.087-.25h.416l.088.25h.195l-.406-1.073h-.168l-.405 1.073h.194zm.294-.845.155.445h-.311l.155-.445zm.984.419a.243.243 0 0 0-.04.134v.002c0 .091.032.164.095.22s.149.084.255.084a.445.445 0 0 0 .274-.086l.06.072h.208l-.158-.187a.537.537 0 0 0 .093-.325h-.155a.43.43 0 0 1-.045.197l-.207-.245.073-.053a.388.388 0 0 0 .11-.111l.001-.001a.238.238 0 0 0 .034-.122v-.006a.222.222 0 0 0-.075-.166.27.27 0 0 0-.181-.07h-.011.001c-.086 0-.155.025-.206.074s-.077.115-.077.199c0 .034.008.07.024.107s.046.081.088.134a.638.638 0 0 0-.16.148zm.484.237a.27.27 0 0 1-.169.06h-.009a.178.178 0 0 1-.12-.047.16.16 0 0 1-.048-.115v-.006c0-.057.03-.109.088-.153l.023-.016.234.277zm-.192-.475c-.051-.063-.076-.114-.076-.155 0-.036.011-.066.031-.089a.105.105 0 0 1 .079-.036H14.787c.03 0 .056.012.076.03.021.02.032.044.032.072v.004c0 .04-.018.076-.046.1l-.023.018-.082.056zm1.746.583a.388.388 0 0 0 .127-.268h-.186c-.01.077-.033.131-.07.164s-.092.049-.165.049c-.08 0-.141-.03-.183-.091s-.062-.149-.062-.266v-.095c.001-.115.023-.201.066-.26s.106-.089.187-.089c.07 0 .123.017.159.051s.059.09.068.167h.186c-.012-.117-.054-.208-.126-.273s-.168-.097-.286-.097a.433.433 0 0 0-.233.063.414.414 0 0 0-.153.176l-.001.003a.622.622 0 0 0-.054.255v.013-.001.1c.002.099.02.185.055.26s.086.132.15.173c.065.04.141.06.226.06.122 0 .22-.032.294-.096zm1.096-.15a.668.668 0 0 0 .055-.277V22.563a.651.651 0 0 0-.058-.268l.002.004a.413.413 0 0 0-.155-.18l-.002-.001c-.068-.042-.145-.063-.232-.063s-.165.021-.233.064a.414.414 0 0 0-.157.184.646.646 0 0 0-.055.264v.014-.001.06c.001.103.019.193.056.272s.09.139.158.182a.435.435 0 0 0 .233.063c.088 0 .166-.021.233-.063s.12-.104.156-.183zm-.199-.607a.47.47 0 0 1 .068.274v.056c0 .121-.022.213-.067.276s-.107.095-.19.095h-.008a.222.222 0 0 1-.183-.096v-.001a.463.463 0 0 1-.069-.273v-.062a.46.46 0 0 1 .069-.267.22.22 0 0 1 .182-.095h.008a.22.22 0 0 1 .191.095z"/></symbol>

<symbol id="icon-smartphone" viewBox="0 0 32 32"><path d="M23 0H9C7.346 0 6 1.346 6 3v26c0 1.654 1.346 3 3 3h14c1.654 0 3-1.346 3-3V3c0-1.654-1.346-3-3-3zM9 2h14a1 1 0 0 1 1 1v21H8V3a1 1 0 0 1 1-1zm14 28H9a1 1 0 0 1-1-1v-3h16v3a1 1 0 0 1-1 1z"/><path d="M10.708 27.478a.889.889 0 0 1 .001 1.319l-.001.001a1.048 1.048 0 0 1-1.417 0l.001.001a.889.889 0 0 1-.001-1.319l.001-.001a1.048 1.048 0 0 1 1.417 0l-.001-.001z"/></symbol>

<symbol id="icon-envelope" viewBox="0 0 32 32"><path d="M29 4H3C1.346 4 0 5.346 0 7v18c0 1.654 1.346 3 3 3h26c1.654 0 3-1.346 3-3V7c0-1.654-1.346-3-3-3zm0 2c.136 0 .266.028.384.078L16 17.678 2.616 6.078A.971.971 0 0 1 3 6h26zm0 20H3a1 1 0 0 1-1-1V8.19l13.344 11.566a.997.997 0 0 0 1.313-.001l-.001.001L30 8.19V25a1 1 0 0 1-1 1z"/></symbol>

<symbol id="icon-facebook" viewBox="0 0 32 32"><path d="M21.328 5.312h2.923V.224A36.478 36.478 0 0 0 20.144 0h-.157.008c-4.213 0-7.099 2.65-7.099 7.52V12H8.25v5.688h4.646V32h5.699V17.69h4.459l.709-5.688h-5.17V8.08c0-1.643.443-2.768 2.734-2.768z"/></symbol>

<symbol id="icon-instagram" viewBox="0 0 32 32"><path d="M31.968 9.408c-.074-1.701-.349-2.869-.742-3.882a7.839 7.839 0 0 0-1.85-2.837l-.001-.001A7.906 7.906 0 0 0 26.597.861l-.054-.018C25.524.449 24.362.176 22.661.101 20.949.019 20.405 0 16.059 0c-4.344 0-4.888.019-6.595.094-1.699.074-2.869.349-3.88.742a7.847 7.847 0 0 0-2.839 1.85l-.001.001A7.9 7.9 0 0 0 .919 5.465l-.018.054C.506 6.538.232 7.7.157 9.401c-.082 1.712-.101 2.256-.101 6.602 0 4.344.019 4.888.094 6.595.075 1.701.35 2.869.744 3.882a7.915 7.915 0 0 0 1.849 2.837l.001.001c.8.813 1.77 1.443 2.832 1.843 1.019.395 2.182.67 3.882.744 1.707.075 2.251.094 6.595.094 4.346 0 4.89-.019 6.595-.094 1.701-.074 2.869-.349 3.882-.742a8.237 8.237 0 0 0 4.664-4.628l.019-.055c.394-1.019.669-2.182.744-3.882.075-1.707.093-2.251.093-6.595s-.006-4.888-.08-6.595zm-2.88 13.066c-.07 1.563-.333 2.406-.55 2.97a5.341 5.341 0 0 1-3.004 3.024l-.036.012c-.56.219-1.411.482-2.968.55-1.688.075-2.194.094-6.464.094-4.269 0-4.782-.019-6.464-.094-1.563-.069-2.406-.331-2.97-.55a4.953 4.953 0 0 1-1.836-1.192l-.001-.001a4.978 4.978 0 0 1-1.184-1.803L3.6 25.45c-.218-.563-.48-1.413-.549-2.97-.075-1.688-.094-2.195-.094-6.464 0-4.27.019-4.784.094-6.464.069-1.563.331-2.406.549-2.97a4.897 4.897 0 0 1 1.198-1.837l.002-.002a4.972 4.972 0 0 1 1.806-1.182l.034-.011c.56-.219 1.411-.48 2.968-.55 1.688-.074 2.195-.093 6.464-.093 4.275 0 4.782.019 6.464.093 1.563.069 2.406.331 2.97.55a4.91 4.91 0 0 1 1.837 1.194c.531.52.938 1.144 1.195 1.84.218.56.48 1.411.549 2.968.075 1.688.094 2.194.094 6.464 0 4.269-.019 4.768-.094 6.458z"/><path d="M16.059 7.782a8.223 8.223 0 0 0-8.219 8.221 8.223 8.223 0 0 0 16.442.008v-.009a8.223 8.223 0 0 0-8.221-8.221zm0 13.552a5.333 5.333 0 0 1 .001-10.666h.001a5.334 5.334 0 1 1 0 10.668zM26.525 7.458a1.92 1.92 0 0 1-3.84 0 1.92 1.92 0 0 1 3.84 0z"/></symbol>

<symbol id="icon-twitter" viewBox="0 0 32 32"><path d="M32 6.078c-1.1.493-2.376.857-3.713 1.028l-.068.007a6.556 6.556 0 0 0 2.873-3.579l.013-.046a12.88 12.88 0 0 1-4.076 1.573l-.084.014A6.558 6.558 0 0 0 15.6 9.557v.004c0 .52.043 1.021.152 1.496-5.454-.266-10.28-2.88-13.522-6.861a6.524 6.524 0 0 0-.902 3.313v.001a6.57 6.57 0 0 0 2.914 5.451 6.453 6.453 0 0 1-2.994-.823l.033.017v.072a6.592 6.592 0 0 0 5.213 6.44l.043.008a6.403 6.403 0 0 1-1.662.215h-.061.003c-.419 0-.843-.024-1.242-.112.85 2.598 3.261 4.509 6.13 4.57a13.093 13.093 0 0 1-8.122 2.8H1.57h.001-.062c-.531 0-1.055-.034-1.569-.099l.061.006c2.826 1.846 6.287 2.944 10.004 2.944h.063-.003c12.072 0 18.672-10 18.672-18.669 0-.288-.01-.57-.024-.848a13.203 13.203 0 0 0 3.258-3.355l.03-.047z"/></symbol>

<symbol id="icon-linkedin" viewBox="0 0 32 32"><path d="M31.992 32H32V20.262c0-5.741-1.235-10.163-7.947-10.163-3.227 0-5.392 1.77-6.277 3.45h-.093v-2.914h-6.365v21.363h6.627V21.42c0-2.786.528-5.48 3.978-5.48 3.398 0 3.45 3.179 3.45 5.658V32h6.619zM.528 10.635h6.635V32H.528V10.635zM3.843 0A3.843 3.843 0 0 0 0 3.843c0 2.12 1.722 3.878 3.843 3.878 2.12 0 3.842-1.757 3.842-3.878S5.965.002 3.844 0z"/></symbol>

<symbol id="icon-antenna" viewBox="0 0 32 32"><path fill="#212121" style="fill:var(--color4, #212121)" d="m30.773 22.098-8.443-8.505.937-4.616c.225.09.485.144.758.146h.033a2.16 2.16 0 1 0-2.029-1.42l-.005-.015-4.96.606L8.973.161a.53.53 0 0 0-.376-.16.536.536 0 0 0-.373.155L6.712 1.66a.535.535 0 0 0 0 .754l.814.825C6.383 5.301 5.71 7.761 5.71 10.378c0 4.106 1.656 7.824 4.336 10.525l-.001-.001a.49.49 0 0 0 .146.097 2.986 2.986 0 0 0-.052.546v6.188h-6.4a2.669 2.669 0 0 0-2.667 2.666v1.067c0 .295.239.534.534.534H26.14a.534.534 0 0 0 .533-.534v-1.067a2.67 2.67 0 0 0-2.666-2.666h-6.4v-2.742a14.784 14.784 0 0 0 10.166-1.502l-.077.039.818.823a.534.534 0 0 0 .376.16.536.536 0 0 0 .373-.155l1.512-1.504a.535.535 0 0 0 0-.754zM23.28 6.233a1.067 1.067 0 1 1 .752 1.822h-.004a1.066 1.066 0 0 1-.747-1.822h-.002zm-1.256 3.504-.598 2.946-1.175-1.183 1.774-1.763zm-.605-.902-1.92 1.909-1.486-1.493 3.406-.416zM24.004 28.8a1.6 1.6 0 0 1 1.6 1.6v.534H2.138V30.4a1.6 1.6 0 0 1 1.6-1.6h20.267zm-7.466-2.134v1.067h-5.334v-1.067h5.334zM11.204 25.6v-4.053c0-1.294 1.196-2.346 2.667-2.346s2.667 1.053 2.667 2.346V25.6h-5.334zm6.4-1.696v-2.357c0-1.882-1.675-3.413-3.733-3.413h-.058c-1.353 0-2.54.707-3.213 1.771l-.009.016a13.817 13.817 0 0 1-3.812-9.55c0-2.314.567-4.496 1.569-6.414l-.036.077 18.602 18.709c-1.823.947-3.979 1.502-6.266 1.502-1.079 0-2.128-.124-3.136-.357l.093.018zm11.289-.684L7.836 2.039l.754-.752 7.935 7.98c.004 0 .006.007.01.01l13.114 13.191-.757.752z"/><path fill="#2196f3" style="fill:var(--color2, #2196f3)" d="M13.876 20.267h-.007a1.6 1.6 0 0 0-.003 3.2h.007a1.6 1.6 0 0 0 .002-3.2zm.373 1.978a.534.534 0 1 1-.378-.912.533.533 0 0 1 .374.911h.005z"/></symbol>

<symbol id="icon-diagram" viewBox="0 0 32 32"><path d="M1.599 28.291h25.586a1.6 1.6 0 0 0 1.599-1.599V24.56a1.6 1.6 0 0 0-1.599-1.599h-.533V9.667l3.028-2.868a1.608 1.608 0 1 0-.742-.752l-.004-.01-2.281 2.162v-1.23a1.6 1.6 0 0 0-1.599-1.599H3.731a1.6 1.6 0 0 0-1.599 1.599v15.992h-.533A1.6 1.6 0 0 0 0 24.56v2.132a1.6 1.6 0 0 0 1.599 1.599zM30.384 4.837a.533.533 0 0 1 0 1.066.533.533 0 0 1 0-1.066zM3.198 6.969c0-.294.239-.533.533-.533h21.323c.294 0 .533.239.533.533v2.239l-1.066 1.013V8.036a.534.534 0 0 0-.534-.534H4.798a.534.534 0 0 0-.534.533v13.327c0 .294.239.533.534.533h19.189a.534.534 0 0 0 .534-.533v-9.675l1.066-1.01V22.96H3.198V6.97zm4.798 6.93h-.005a1.6 1.6 0 1 0 1.112 2.748l1.853.93a.533.533 0 0 0 .636-.123l3.939-4.431 3.872 2.902a.534.534 0 0 0 .686-.039l3.365-3.188v8.131H5.331V8.568h18.123v2.661l-3.771 3.572-3.904-2.927a.534.534 0 0 0-.718.071v.001l-3.993 4.493-1.493-.746c.011-.064.017-.128.02-.193a1.6 1.6 0 0 0-1.599-1.599zm.533 1.599a.533.533 0 0 1-1.066 0 .533.533 0 0 1 1.066 0zm3.198 8.528h5.33v.533a.533.533 0 0 1-.533.533h-4.265a.533.533 0 0 1-.533-.533v-.533zm-10.66.534c0-.294.238-.533.533-.533h9.062v.533a1.6 1.6 0 0 0 1.599 1.599h4.265a1.6 1.6 0 0 0 1.599-1.599v-.533h9.062c.294 0 .533.239.533.533v2.132a.533.533 0 0 1-.533.533H1.601a.533.533 0 0 1-.533-.533V24.56z"/></symbol>

<symbol id="icon-clock" viewBox="0 0 32 32"><path fill="#212121" style="fill:var(--color4, #212121)" d="M31.296 15.301C31.295 6.849 24.441-.002 15.988 0S.685 6.855.687 15.308c.002 6.788 4.422 12.543 10.541 14.545l.108.031a.667.667 0 0 0 .529-.065.636.636 0 0 0 .283-.357l3.865-12.25a1.913 1.913 0 1 0-.852-3.63l.011-.005-5.106-5.107a.638.638 0 0 0-.902.902l5.103 5.109a1.847 1.847 0 0 0-.191.826c0 .602.283 1.137.723 1.48l.004.003-3.682 11.673C3.843 25.782.117 17.709 2.797 10.431S13.551-.573 20.829 2.108c7.278 2.681 11.004 10.754 8.323 18.032-1.345 3.581-4.003 6.406-7.374 7.938l-.088.036-.398-1.874a.639.639 0 0 0-1.05-.343l.001-.001-3.837 3.426a.637.637 0 0 0 .227 1.083l.005.001 4.899 1.563a.637.637 0 0 0 .818-.744l.001.004-.391-1.839c5.528-2.374 9.329-7.772 9.329-14.057v-.034.002zm-15.304-.637a.638.638 0 0 1 0 1.276.638.638 0 0 1 0-1.276zm2.1 14.864 2.184-1.948.603 2.84-2.787-.892z"/><path fill="#2196f3" style="fill:var(--color2, #2196f3)" d="M15.354 3.185V4.46a.638.638 0 0 0 1.276 0V3.185a.638.638 0 1 0-1.276 0zM3.876 14.664a.638.638 0 0 0 0 1.276h1.275a.638.638 0 0 0 0-1.276H3.876zm24.232 1.275a.638.638 0 0 0 0-1.276h-1.275a.638.638 0 0 0 0 1.276h1.275z"/>
</symbol>

<symbol id="icon-astronaut" viewBox="0 0 32 32"><path fill="#2196f3" style="fill:var(--color2, #2196f3)" d="M31.974 4.524a.535.535 0 0 0-.427-.362h-.003l-1.911-.278-.855-1.731c-.179-.365-.777-.365-.956 0l-.855 1.731-1.911.278a.534.534 0 0 0-.296.91l1.383 1.348-.326 1.903a.532.532 0 0 0 .774.562l1.709-.899 1.709.899a.534.534 0 0 0 .773-.565v.003l-.326-1.903 1.383-1.348a.535.535 0 0 0 .134-.55l.001.004zm-2.463 1.327a.53.53 0 0 0-.153.472l.191 1.114-1-.526a.525.525 0 0 0-.501.001l.003-.001-1 .526.191-1.114a.53.53 0 0 0-.152-.472l-.811-.79 1.119-.162a.532.532 0 0 0 .402-.292l.5-1.013.5 1.013a.532.532 0 0 0 .402.292l1.119.162-.809.79zm-3.377 14.671h-1.067v1.067h1.067v-1.067zm0 2.134h-1.067v1.066h1.067v-1.066zm1.066-1.067h-1.067v1.067H27.2v-1.067zm-2.133 0H24v1.067h1.067v-1.067zm-2.667 4.8h-1.067v1.067H22.4v-1.067zm0 2.134h-1.067v1.067H22.4v-1.067zm1.067-1.067H22.4v1.067h1.067v-1.067zm-2.133 0h-1.067v1.067h1.067v-1.067zM16 24.256h-1.066v1.067H16v-1.067zm0 2.133h-1.066v1.067H16v-1.067zm1.067-1.067H16v1.067h1.067v-1.067zm-2.133 0h-1.067v1.067h1.067v-1.067zm-9.067-19.2H4.801v1.066h1.066V6.122zm0 2.134H4.801v1.066h1.066V8.256zm1.066-1.067H5.866v1.067h1.066V7.189zm-2.133 0H3.733v1.067H4.8V7.189z"/><path fill="#212121" style="fill:var(--color4, #212121)" d="M24.715 14.16a1.774 1.774 0 0 0-1.179-.703l-.009-.001a1.769 1.769 0 0 0-1.344.355l.004-.003-1.253.96-1.898 1.417-1.358-.541c2.421-1.086 4.113-3.508 4.113-6.32 0-3.823-3.122-6.934-6.961-6.934S7.869 5.5 7.869 9.324c0 1.386.415 2.674 1.12 3.759l-2.768-.024c-.009 0-.016.005-.023.005a.511.511 0 0 0-.159.033l.004-.001c-.013.005-.026.007-.038.013-.006.003-.013.003-.019.006l-3.233 1.596-.001.001-1.893.91a.5.5 0 0 0-.065.036l.001-.001a1.782 1.782 0 0 0-.594 2.306l-.005-.01c.22.424.592.742 1.043.885l.013.003a1.772 1.772 0 0 0 1.388-.133l-.009.005 1.388-.738 2.264-1.169 1.357-.008-5.442 5.415-.001.001-1.339 1.333a1.643 1.643 0 0 0-.491 1.173v.005a1.668 1.668 0 0 0 1.667 1.664h.002a1.67 1.67 0 0 0 1.18-.485l1.314-1.309 1.741-1.3.901.897L4.07 27.28a1.643 1.643 0 0 0-.491 1.173v.004a1.662 1.662 0 0 0 1.666 1.664h.003a1.67 1.67 0 0 0 1.18-.485l4.488-4.472c.007-.006.016-.009.022-.016l5.166-5.658 3.471.494a.474.474 0 0 0 .262-.032c.017-.006.032-.015.049-.023.019-.01.039-.015.058-.027l3.213-2.133c.012-.008.018-.021.029-.03.013-.01.029-.014.041-.026l1.271-1.191c.348-.326.564-.787.564-1.3 0-.4-.132-.769-.355-1.066l.003.005zM2.13 17.77a.706.706 0 0 1-.564.05l.005.001a.717.717 0 0 1-.215-1.258l.002-.001 1.314-.632.316.924.133.389-.992.527zm3.497-1.828-1.548.8-.255-.746-.184-.537 2.027-1.001-.04 1.484zm15.1-6.62c0 .918-.219 1.785-.599 2.56l-4.181-1.899a1.865 1.865 0 0 0-.782-1.384l-.006-.004 1.464-4.861c2.377.757 4.104 2.975 4.104 5.588zm-11.789 0c0-3.235 2.644-5.867 5.894-5.867.253 0 .5.022.745.053l-1.432 4.753c-.019 0-.037-.006-.057-.006h-.001a1.872 1.872 0 0 0-1.872 1.867 1.873 1.873 0 0 0 1.872 1.867h.001c.695 0 1.295-.383 1.618-.944l3.863 1.755a5.891 5.891 0 0 1-4.737 2.39c-3.25 0-5.894-2.632-5.894-5.867zm5.957.8c0 .441-.362.8-.806.8h-.001a.804.804 0 0 1-.804-.8c0-.441.361-.8.806-.8s.806.359.806.8zM2.464 25.146a.606.606 0 0 1-.855.001.591.591 0 0 1 0-.844l.962-.959.852.848-.959.954zm3.214 3.734a.606.606 0 0 1-.855.001.591.591 0 0 1 0-.844l.963-.959.852.848-.96.955zm3.482-3.469-.001.001-1.765 1.76-.852-.848 1.765-1.757a.527.527 0 0 0 .09-.136c.007-.014.02-.026.026-.04.016-.041.019-.085.026-.128.003-.025.014-.048.014-.073 0-.035-.013-.07-.02-.105-.006-.032-.006-.064-.019-.096a.536.536 0 0 0-.092-.138c-.01-.012-.014-.026-.025-.038h-.001l-.001-.002-1.607-1.6c-.017-.017-.039-.024-.058-.038a.491.491 0 0 0-.084-.056l-.003-.001a.527.527 0 0 0-.09-.031l-.003-.001a.502.502 0 0 0-.101-.02h-.025a.603.603 0 0 0-.075.005h.003c-.036.005-.069.009-.104.021s-.064.027-.094.045c-.02.011-.043.015-.061.029l-1.774 1.324-.901-.897 2.399-2.386 4.36 4.289-.928.919zm6.819-7.017c-.016-.002-.03.004-.046.003l-.027-.001a.562.562 0 0 0-.092.008h.003a.484.484 0 0 0-.187.07l.002-.001a.492.492 0 0 0-.083.061c-.013.011-.028.016-.04.029l-4.698 5.146-4.328-4.256 2.833-2.818a.535.535 0 0 0-.378-.911h-.002l-2.219.013.028-1.607 3.104.027a6.928 6.928 0 0 0 4.978 2.101h.003c.438 0 .864-.046 1.28-.122.04.032.08.064.129.085l2.41.96.152.758.178.886-3.003-.427zm4.041.178-.313-1.558 1.446-1.08.946 1.257-2.08 1.381zm3.753-2.831-.837.785-.931-1.236.831-.637a.735.735 0 0 1 .543-.143.718.718 0 0 1 .621.71.71.71 0 0 1-.226.521z"/>
<path fill="#212121" style="fill:var(--color4, #212121)" d="m13.602 18.544-2.143-2.134a.53.53 0 0 0-.752 0l-2.143 2.133a.535.535 0 0 0 0 .756l2.142 2.134a.53.53 0 0 0 .752 0l2.143-2.134a.532.532 0 0 0 0-.756zm-2.519 1.759-1.387-1.381 1.386-1.381 1.387 1.381-1.387 1.381zm6.081-15.232-.258 1.036c.071.018 1.738.452 1.738 2.149h1.067c0-2.017-1.666-2.965-2.547-3.184zm2.547 4.251h-1.067v1.066h1.067V9.322z"/></symbol>

</defs>
</svg>